<svg width="54" height="48" viewBox="0 0 54 48" fill="none" xmlns="http://www.w3.org/2000/svg">
<path d="M43.6875 26.6294H35.4375C35.2137 26.6294 34.9991 26.5525 34.8409 26.4156C34.6826 26.2787 34.5938 26.0931 34.5938 25.8995C34.5938 25.706 34.6826 25.5203 34.8409 25.3834C34.9991 25.2466 35.2137 25.1697 35.4375 25.1697H43.6875C43.9113 25.1697 44.1259 25.2466 44.2841 25.3834C44.4423 25.5203 44.5312 25.706 44.5312 25.8995C44.5312 26.0931 44.4423 26.2787 44.2841 26.4156C44.1259 26.5525 43.9113 26.6294 43.6875 26.6294Z" fill="#E0E2E5"/>
<path d="M25.3125 17.1414L27 34.6576V36.1173H37.125V34.6576L38.8125 17.1414H25.3125Z" fill="#93573D"/>
<path d="M16.875 17.1414V16.4116H13.5V18.6011H10.125V25.8995H13.5H16.875V25.1697H20.25V17.1414H16.875Z" fill="#FDD14B"/>
<path d="M13.5 28.089C13.2762 28.089 13.0616 28.0121 12.9034 27.8753C12.7451 27.7384 12.6562 27.5528 12.6562 27.3592V19.3309C12.6562 19.1374 12.7451 18.9517 12.9034 18.8148C13.0616 18.678 13.2762 18.6011 13.5 18.6011C13.7238 18.6011 13.9384 18.678 14.0966 18.8148C14.2549 18.9517 14.3438 19.1374 14.3438 19.3309V27.3592C14.3438 27.5528 14.2549 27.7384 14.0966 27.8753C13.9384 28.0121 13.7238 28.089 13.5 28.089Z" fill="#E4BC43"/>
<path d="M16.9957 29.5487C16.7733 29.5487 16.5599 29.4728 16.4019 29.3374C16.2439 29.202 16.1541 29.0182 16.1519 28.8258L16.0313 17.8782C16.0292 17.6846 16.116 17.4982 16.2727 17.3601C16.4295 17.2219 16.6432 17.1432 16.867 17.1414C17.0908 17.1396 17.3063 17.2147 17.466 17.3503C17.6257 17.4858 17.7167 17.6707 17.7188 17.8643L17.8393 28.812C17.8415 29.0055 17.7546 29.1918 17.598 29.33C17.4413 29.4682 17.2276 29.5469 17.0038 29.5487H16.9957Z" fill="#E4BC43"/>
<path d="M9.28125 24.4398L10.9688 34.6576V36.1173H21.0938V34.6576V24.4398H9.28125Z" fill="#E74444"/>
<path d="M48.9375 26.6294H47.25C47.0262 26.6294 46.8116 26.5525 46.6534 26.4156C46.4951 26.2787 46.4062 26.0931 46.4062 25.8995C46.4062 25.706 46.4951 25.5203 46.6534 25.3834C46.8116 25.2466 47.0262 25.1697 47.25 25.1697H48.9375C49.1613 25.1697 49.3759 25.2466 49.5341 25.3834C49.6924 25.5203 49.7812 25.706 49.7812 25.8995C49.7812 26.0931 49.6924 26.2787 49.5341 26.4156C49.3759 26.5525 49.1613 26.6294 48.9375 26.6294Z" fill="#E0E2E5"/>
<path d="M38.8125 17.1414L38.5309 20.0607H25.5941L25.3125 17.1414H38.8125Z" fill="#A4D4F4"/>
<path d="M23.6737 12.7623C23.521 12.7621 23.3712 12.7262 23.2403 12.6583C23.1094 12.5903 23.0022 12.4929 22.9302 12.3765C22.8583 12.26 22.8242 12.1288 22.8316 11.9969C22.839 11.865 22.8877 11.7373 22.9724 11.6274L23.774 10.5869C23.8936 10.4316 23.94 10.2427 23.9036 10.0588C23.8672 9.87497 23.7507 9.71014 23.5782 9.5982L22.7574 9.0655C22.24 8.72956 21.891 8.23506 21.7819 7.68352C21.6728 7.13197 21.8119 6.56523 22.1706 6.0996L22.9722 5.05894C23.0337 4.97919 23.1127 4.91069 23.2048 4.85736C23.2968 4.80403 23.4001 4.76691 23.5088 4.74812C23.6175 4.72932 23.7293 4.72922 23.838 4.74783C23.9467 4.76643 24.0501 4.80337 24.1423 4.85654C24.2345 4.90971 24.3137 4.97807 24.3754 5.05771C24.437 5.13735 24.4799 5.22672 24.5017 5.3207C24.5234 5.41469 24.5235 5.51146 24.502 5.60549C24.4805 5.69951 24.4378 5.78895 24.3763 5.8687L23.5744 6.90927C23.4548 7.0645 23.4085 7.25345 23.4449 7.43732C23.4813 7.62119 23.5977 7.78601 23.7703 7.89794L24.5911 8.43063C25.1086 8.76653 25.4577 9.261 25.5669 9.81256C25.6762 10.3641 25.5372 10.9309 25.1785 11.3966L24.3769 12.4373C24.2998 12.5374 24.1952 12.6195 24.0725 12.6762C23.9498 12.7329 23.8128 12.7625 23.6737 12.7623V12.7623Z" fill="#E0E2E5"/>
<path d="M16.9237 12.7624C16.771 12.7623 16.6212 12.7263 16.4903 12.6584C16.3594 12.5905 16.2522 12.4931 16.1802 12.3766C16.1083 12.2601 16.0742 12.1289 16.0816 11.997C16.089 11.8651 16.1377 11.7374 16.2224 11.6276L17.024 10.587C17.1436 10.4318 17.19 10.2428 17.1536 10.059C17.1172 9.87509 17.0007 9.71026 16.8282 9.59832L16.0074 9.06563C15.49 8.72968 15.141 8.23519 15.0319 7.68364C14.9228 7.1321 15.0619 6.56535 15.4206 6.09973L16.2222 5.05906C16.3463 4.898 16.5394 4.7862 16.7588 4.74824C16.9782 4.71029 17.2061 4.74929 17.3923 4.85667C17.5785 4.96405 17.7078 5.13101 17.7517 5.32083C17.7955 5.51065 17.7504 5.70777 17.6263 5.86882L16.8244 6.9094C16.7048 7.06463 16.6585 7.25358 16.6949 7.43745C16.7313 7.62131 16.8477 7.78614 17.0203 7.89806L17.8411 8.43076C18.3586 8.76666 18.7077 9.26113 18.8169 9.81269C18.9262 10.3642 18.7872 10.931 18.4285 11.3968L17.6269 12.4374C17.5498 12.5376 17.4452 12.6197 17.3225 12.6764C17.1998 12.7331 17.0628 12.7626 16.9237 12.7624V12.7624Z" fill="#E0E2E5"/>
<path d="M30.3299 12.7623C30.1772 12.7622 30.0274 12.7263 29.8965 12.6583C29.7656 12.5904 29.6584 12.493 29.5865 12.3765C29.5145 12.26 29.4804 12.1289 29.4878 11.997C29.4952 11.865 29.5439 11.7374 29.6286 11.6275L30.4307 10.5869C30.5503 10.4317 30.5967 10.2427 30.5603 10.0589C30.5238 9.87499 30.4074 9.71017 30.2349 9.59824L29.414 9.06564C28.8966 8.72974 28.5474 8.23527 28.4382 7.68371C28.329 7.13216 28.468 6.56536 28.8266 6.09965L29.6282 5.05898C29.7523 4.89785 29.9454 4.78598 30.1649 4.74797C30.2736 4.72915 30.3855 4.72903 30.4942 4.74762C30.603 4.76621 30.7064 4.80314 30.7986 4.85631C30.8909 4.90948 30.9701 4.97785 31.0318 5.0575C31.0935 5.13716 31.1364 5.22654 31.1582 5.32056C31.18 5.41457 31.1801 5.51137 31.1586 5.60543C31.1371 5.69948 31.0944 5.78896 31.0329 5.86874L30.2314 6.90932C30.1118 7.06454 30.0654 7.25348 30.1018 7.43735C30.1382 7.62121 30.2546 7.78604 30.4271 7.89798L31.248 8.43068C31.7655 8.76655 32.1146 9.26102 32.2239 9.81259C32.3331 10.3642 32.1941 10.931 31.8354 11.3967L31.0338 12.4373C30.9566 12.5376 30.8519 12.6197 30.7291 12.6764C30.6063 12.7331 30.4691 12.7626 30.3299 12.7623V12.7623Z" fill="#E0E2E5"/>
<path d="M51.4688 22.2503H42.1875C41.9637 22.2503 41.7491 22.1734 41.5909 22.0365C41.4326 21.8996 41.3438 21.714 41.3438 21.5204C41.3438 21.3269 41.4326 21.1412 41.5909 21.0044C41.7491 20.8675 41.9637 20.7906 42.1875 20.7906H51.4688C51.6925 20.7906 51.9071 20.8675 52.0654 21.0044C52.2236 21.1412 52.3125 21.3269 52.3125 21.5204C52.3125 21.714 52.2236 21.8996 52.0654 22.0365C51.9071 22.1734 51.6925 22.2503 51.4688 22.2503Z" fill="#E0E2E5"/>
<path d="M45.5625 31.0084H40.5C40.2762 31.0084 40.0616 30.9315 39.9034 30.7946C39.7451 30.6578 39.6562 30.4721 39.6562 30.2786C39.6562 30.085 39.7451 29.8993 39.9034 29.7625C40.0616 29.6256 40.2762 29.5487 40.5 29.5487H45.5625C45.7863 29.5487 46.0009 29.6256 46.1591 29.7625C46.3174 29.8993 46.4062 30.085 46.4062 30.2786C46.4062 30.4721 46.3174 30.6578 46.1591 30.7946C46.0009 30.9315 45.7863 31.0084 45.5625 31.0084Z" fill="#E0E2E5"/>
<path d="M51.4688 42.6859H2.53125C2.30747 42.6859 2.09286 42.6091 1.93463 42.4722C1.77639 42.3353 1.6875 42.1497 1.6875 41.9561C1.6875 41.7625 1.77639 41.5769 1.93463 41.44C2.09286 41.3032 2.30747 41.2263 2.53125 41.2263H51.4688C51.6925 41.2263 51.9071 41.3032 52.0654 41.44C52.2236 41.5769 52.3125 41.7625 52.3125 41.9561C52.3125 42.1497 52.2236 42.3353 52.0654 42.4722C51.9071 42.6091 51.6925 42.6859 51.4688 42.6859Z" fill="#C2C5C6"/>
<path d="M2.53125 34.6577H44.7188V36.1173C44.7188 36.5045 44.541 36.8758 44.2245 37.1495C43.908 37.4232 43.4788 37.577 43.0312 37.577H4.21875C3.7712 37.577 3.34197 37.4232 3.02551 37.1495C2.70904 36.8758 2.53125 36.5045 2.53125 36.1173V34.6577Z" fill="#FDD14B"/>
<path d="M36.2812 41.9561C39.0772 41.9561 41.3438 39.9955 41.3438 37.577C41.3438 35.1585 39.0772 33.1979 36.2812 33.1979C33.4853 33.1979 31.2188 35.1585 31.2188 37.577C31.2188 39.9955 33.4853 41.9561 36.2812 41.9561Z" fill="#6A7073"/>
<path d="M36.2812 39.0367C37.2132 39.0367 37.9688 38.3832 37.9688 37.577C37.9688 36.7708 37.2132 36.1173 36.2812 36.1173C35.3493 36.1173 34.5938 36.7708 34.5938 37.577C34.5938 38.3832 35.3493 39.0367 36.2812 39.0367Z" fill="#99A2A7"/>
<path d="M10.9688 41.9561C13.7647 41.9561 16.0312 39.9955 16.0312 37.577C16.0312 35.1585 13.7647 33.1979 10.9688 33.1979C8.17281 33.1979 5.90625 35.1585 5.90625 37.577C5.90625 39.9955 8.17281 41.9561 10.9688 41.9561Z" fill="#6A7073"/>
<path d="M10.9688 39.0367C11.9007 39.0367 12.6562 38.3832 12.6562 37.577C12.6562 36.7708 11.9007 36.1173 10.9688 36.1173C10.0368 36.1173 9.28125 36.7708 9.28125 37.577C9.28125 38.3832 10.0368 39.0367 10.9688 39.0367Z" fill="#99A2A7"/>
<path d="M16.0312 31.7383H31.2188V33.198C31.2188 33.5851 31.041 33.9564 30.7245 34.2301C30.408 34.5039 29.9788 34.6577 29.5312 34.6577H17.7188C17.2712 34.6577 16.842 34.5039 16.5255 34.2301C16.209 33.9564 16.0312 33.5851 16.0312 33.198V31.7383Z" fill="#EA8333"/>
<path d="M30.5285 28.8189C31.3757 28.8189 32.0625 29.4724 32.0625 30.2786C32.0625 31.0848 31.3757 31.7383 30.5285 31.7383H16.7215C15.8743 31.7383 15.1875 31.0848 15.1875 30.2786C15.1875 29.4724 15.8743 28.8189 16.7215 28.8189H30.5285Z" fill="#794832"/>
<path d="M16.875 25.8995H30.375V28.8189H16.875V25.8995Z" fill="#FDD14B"/>
<path d="M33 29.75C33 29.3358 32.0406 29 30.8571 29C30.5077 28.999 30.1629 29.029 29.8519 29.0874C29.5409 29.1459 29.273 29.2309 29.071 29.3355C28.8672 29.2317 28.599 29.1472 28.2886 29.0888C27.9781 29.0305 27.6343 29.0001 27.2855 29.0001C26.9367 29.0001 26.5929 29.0305 26.2824 29.0888C25.972 29.1472 25.7038 29.2317 25.5 29.3355C25.2962 29.2317 25.028 29.1472 24.7176 29.0888C24.4071 29.0305 24.0633 29.0001 23.7145 29.0001C23.3657 29.0001 23.0219 29.0305 22.7114 29.0888C22.401 29.1472 22.1328 29.2317 21.929 29.3355C21.727 29.2309 21.4591 29.1459 21.1481 29.0874C20.8371 29.029 20.4923 28.999 20.1429 29C18.9594 29 18 29.3358 18 29.75C18 29.8163 18.0718 29.8799 18.1997 29.9268C18.3276 29.9737 18.501 30 18.6818 30H32.3182C32.499 30 32.6724 29.9737 32.8003 29.9268C32.9282 29.8799 33 29.8163 33 29.75Z" fill="#3BA673"/>
<path d="M31.2188 20.0608V14.222C31.2187 14.0761 31.2693 13.9336 31.3638 13.8128C31.4584 13.692 31.5926 13.5985 31.7492 13.5444L35.9679 12.0847C36.0708 12.0491 36.1808 12.0314 36.2916 12.0325C36.4024 12.0337 36.5118 12.0537 36.6136 12.0915C36.7155 12.1292 36.8077 12.184 36.8851 12.2526C36.9625 12.3212 37.0235 12.4023 37.0647 12.4913C37.1058 12.5803 37.1263 12.6754 37.125 12.7712C37.1236 12.8671 37.1004 12.9618 37.0568 13.0498C37.0131 13.1379 36.9499 13.2177 36.8706 13.2847C36.7912 13.3516 36.6975 13.4044 36.5946 13.44L32.9063 14.7161V20.0608H31.2188Z" fill="#E74444"/>
<path d="M31.2188 17.1414H32.9062V20.0607H31.2188V17.1414Z" fill="#CE3536"/>
</svg>
